%TF.GenerationSoftware,KiCad,Pcbnew,8.0.0*%
%TF.CreationDate,2024-03-04T13:39:21+01:00*%
%TF.ProjectId,ACS712-module,41435337-3132-42d6-9d6f-64756c652e6b,rev?*%
%TF.SameCoordinates,Original*%
%TF.FileFunction,Soldermask,Top*%
%TF.FilePolarity,Negative*%
%FSLAX46Y46*%
G04 Gerber Fmt 4.6, Leading zero omitted, Abs format (unit mm)*
G04 Created by KiCad (PCBNEW 8.0.0) date 2024-03-04 13:39:21*
%MOMM*%
%LPD*%
G01*
G04 APERTURE LIST*
G04 Aperture macros list*
%AMRoundRect*
0 Rectangle with rounded corners*
0 $1 Rounding radius*
0 $2 $3 $4 $5 $6 $7 $8 $9 X,Y pos of 4 corners*
0 Add a 4 corners polygon primitive as box body*
4,1,4,$2,$3,$4,$5,$6,$7,$8,$9,$2,$3,0*
0 Add four circle primitives for the rounded corners*
1,1,$1+$1,$2,$3*
1,1,$1+$1,$4,$5*
1,1,$1+$1,$6,$7*
1,1,$1+$1,$8,$9*
0 Add four rect primitives between the rounded corners*
20,1,$1+$1,$2,$3,$4,$5,0*
20,1,$1+$1,$4,$5,$6,$7,0*
20,1,$1+$1,$6,$7,$8,$9,0*
20,1,$1+$1,$8,$9,$2,$3,0*%
G04 Aperture macros list end*
%ADD10RoundRect,0.150000X-0.150000X0.825000X-0.150000X-0.825000X0.150000X-0.825000X0.150000X0.825000X0*%
%ADD11RoundRect,0.250000X-0.262500X-0.450000X0.262500X-0.450000X0.262500X0.450000X-0.262500X0.450000X0*%
%ADD12RoundRect,0.375000X0.375000X-0.625000X0.375000X0.625000X-0.375000X0.625000X-0.375000X-0.625000X0*%
%ADD13RoundRect,0.500000X1.400000X-0.500000X1.400000X0.500000X-1.400000X0.500000X-1.400000X-0.500000X0*%
%ADD14R,1.800000X4.400000*%
%ADD15O,1.800000X4.000000*%
%ADD16O,4.000000X1.800000*%
%ADD17RoundRect,0.250000X0.250000X0.475000X-0.250000X0.475000X-0.250000X-0.475000X0.250000X-0.475000X0*%
%ADD18C,3.000000*%
%ADD19C,5.000000*%
%ADD20RoundRect,0.250000X-0.475000X0.250000X-0.475000X-0.250000X0.475000X-0.250000X0.475000X0.250000X0*%
%ADD21C,0.800000*%
%ADD22C,6.400000*%
%ADD23R,1.700000X1.700000*%
%ADD24O,1.700000X1.700000*%
%ADD25RoundRect,0.243750X-0.243750X-0.456250X0.243750X-0.456250X0.243750X0.456250X-0.243750X0.456250X0*%
%ADD26RoundRect,0.250000X0.475000X-0.250000X0.475000X0.250000X-0.475000X0.250000X-0.475000X-0.250000X0*%
G04 APERTURE END LIST*
D10*
%TO.C,U1*%
X147000000Y-92000000D03*
X145730000Y-92000000D03*
X144460000Y-92000000D03*
X143190000Y-92000000D03*
X143190000Y-96950000D03*
X144460000Y-96950000D03*
X145730000Y-96950000D03*
X147000000Y-96950000D03*
%TD*%
D11*
%TO.C,R1*%
X171337500Y-115750000D03*
X173162500Y-115750000D03*
%TD*%
D12*
%TO.C,U2*%
X156200000Y-108650000D03*
X158500000Y-108650000D03*
D13*
X158500000Y-102350000D03*
D12*
X160800000Y-108650000D03*
%TD*%
D14*
%TO.C,J5*%
X165500000Y-105100000D03*
D15*
X171300000Y-105100000D03*
D16*
X168500000Y-100300000D03*
%TD*%
D17*
%TO.C,C6*%
X159412500Y-98500000D03*
X157512500Y-98500000D03*
%TD*%
%TO.C,C5*%
X159412500Y-113500000D03*
X157512500Y-113500000D03*
%TD*%
D18*
%TO.C,TP4*%
X151440000Y-119025000D03*
%TD*%
D19*
%TO.C,J1*%
X163500000Y-73850000D03*
X163500000Y-89150000D03*
%TD*%
D20*
%TO.C,C2*%
X134500000Y-103550000D03*
X134500000Y-105450000D03*
%TD*%
D18*
%TO.C,TP2*%
X163500000Y-119000000D03*
%TD*%
D21*
%TO.C,H2*%
X111100000Y-121500000D03*
X111802944Y-119802944D03*
X111802944Y-123197056D03*
X113500000Y-119100000D03*
D22*
X113500000Y-121500000D03*
D21*
X113500000Y-123900000D03*
X115197056Y-119802944D03*
X115197056Y-123197056D03*
X115900000Y-121500000D03*
%TD*%
D18*
%TO.C,TP3*%
X127000000Y-119025000D03*
%TD*%
D20*
%TO.C,C3*%
X144460000Y-103550000D03*
X144460000Y-105450000D03*
%TD*%
D23*
%TO.C,JP1*%
X119500000Y-105775000D03*
D24*
X119500000Y-103235000D03*
%TD*%
D20*
%TO.C,C1*%
X124500000Y-103550000D03*
X124500000Y-105450000D03*
%TD*%
D21*
%TO.C,H4*%
X174100000Y-73500000D03*
X174802944Y-71802944D03*
X174802944Y-75197056D03*
X176500000Y-71100000D03*
D22*
X176500000Y-73500000D03*
D21*
X176500000Y-75900000D03*
X178197056Y-71802944D03*
X178197056Y-75197056D03*
X178900000Y-73500000D03*
%TD*%
D23*
%TO.C,JP2*%
X129500000Y-105775000D03*
D24*
X129500000Y-103235000D03*
%TD*%
D18*
%TO.C,TP1*%
X139000000Y-119025000D03*
%TD*%
D25*
%TO.C,D1*%
X171372500Y-113000000D03*
X173247500Y-113000000D03*
%TD*%
D21*
%TO.C,H3*%
X174100000Y-121500000D03*
X174802944Y-119802944D03*
X174802944Y-123197056D03*
X176500000Y-119100000D03*
D22*
X176500000Y-121500000D03*
D21*
X176500000Y-123900000D03*
X178197056Y-119802944D03*
X178197056Y-123197056D03*
X178900000Y-121500000D03*
%TD*%
D23*
%TO.C,JP3*%
X139500000Y-105775000D03*
D24*
X139500000Y-103235000D03*
%TD*%
D19*
%TO.C,J2*%
X127000000Y-73850000D03*
X127000000Y-89150000D03*
%TD*%
D21*
%TO.C,H1*%
X111100000Y-73500000D03*
X111802944Y-71802944D03*
X111802944Y-75197056D03*
X113500000Y-71100000D03*
D22*
X113500000Y-73500000D03*
D21*
X113500000Y-75900000D03*
X115197056Y-71802944D03*
X115197056Y-75197056D03*
X115900000Y-73500000D03*
%TD*%
D26*
%TO.C,C4*%
X151595000Y-95425000D03*
X151595000Y-93525000D03*
%TD*%
M02*
