M48
; DRILL file {KiCad 8.0.0} date 2024-03-04T13:38:32+0100
; FORMAT={-:-/ absolute / inch / decimal}
; #@! TF.CreationDate,2024-03-04T13:38:32+01:00
; #@! TF.GenerationSoftware,Kicad,Pcbnew,8.0.0
; #@! TF.FileFunction,Plated,1,2,PTH
FMAT,2
INCH
; #@! TA.AperFunction,Plated,PTH,ViaDrill
T1C0.0157
; #@! TA.AperFunction,Plated,PTH,ComponentDrill
T2C0.0197
; #@! TA.AperFunction,Plated,PTH,ComponentDrill
T3C0.0315
; #@! TA.AperFunction,Plated,PTH,ComponentDrill
T4C0.0394
; #@! TA.AperFunction,Plated,PTH,ComponentDrill
T5C0.0591
; #@! TA.AperFunction,Plated,PTH,ComponentDrill
T6C0.0764
; #@! TA.AperFunction,Plated,PTH,ComponentDrill
T7C0.1260
%
G90
G05
T1
X5.5748Y-3.7953
X5.5748Y-3.8425
X5.5748Y-3.8898
X5.6378Y-3.8898
X5.9685Y-3.6417
T2
X4.374Y-2.8937
X4.374Y-4.7835
X4.4017Y-2.8269
X4.4017Y-2.9605
X4.4017Y-4.7167
X4.4017Y-4.8503
X4.4685Y-2.7992
X4.4685Y-2.9882
X4.4685Y-4.689
X4.4685Y-4.878
X4.5353Y-2.8269
X4.5353Y-2.9605
X4.5353Y-4.7167
X4.5353Y-4.8503
X4.563Y-2.8937
X4.563Y-4.7835
X6.8543Y-2.8937
X6.8543Y-4.7835
X6.882Y-2.8269
X6.882Y-2.9605
X6.882Y-4.7167
X6.882Y-4.8503
X6.9488Y-2.7992
X6.9488Y-2.9882
X6.9488Y-4.689
X6.9488Y-4.878
X7.0156Y-2.8269
X7.0156Y-2.9605
X7.0156Y-4.7167
X7.0156Y-4.8503
X7.0433Y-2.8937
X7.0433Y-4.7835
T4
X4.7047Y-4.0644
X4.7047Y-4.1644
X5.0984Y-4.0644
X5.0984Y-4.1644
X5.4921Y-4.0644
X5.4921Y-4.1644
T5
X5.0Y-4.686
X5.4724Y-4.686
X5.9622Y-4.686
X6.437Y-4.685
T6
X5.0Y-2.9075
X5.0Y-3.5098
X6.437Y-2.9075
X6.437Y-3.5098
T7
X4.4685Y-2.8937
X4.4685Y-4.7835
X6.9488Y-2.8937
X6.9488Y-4.7835
T3
G00X6.5157Y-4.189
M15
G01X6.5157Y-4.0866
M16
G05
G00X6.6772Y-3.9488
M15
G01X6.5906Y-3.9488
M16
G05
G00X6.7441Y-4.1811
M15
G01X6.7441Y-4.0945
M16
G05
M30
