%TF.GenerationSoftware,KiCad,Pcbnew,8.0.0*%
%TF.CreationDate,2024-03-04T13:39:21+01:00*%
%TF.ProjectId,ACS712-module,41435337-3132-42d6-9d6f-64756c652e6b,rev?*%
%TF.SameCoordinates,Original*%
%TF.FileFunction,Copper,L2,Bot*%
%TF.FilePolarity,Positive*%
%FSLAX46Y46*%
G04 Gerber Fmt 4.6, Leading zero omitted, Abs format (unit mm)*
G04 Created by KiCad (PCBNEW 8.0.0) date 2024-03-04 13:39:21*
%MOMM*%
%LPD*%
G01*
G04 APERTURE LIST*
%TA.AperFunction,ComponentPad*%
%ADD10R,1.800000X4.400000*%
%TD*%
%TA.AperFunction,ComponentPad*%
%ADD11O,1.800000X4.000000*%
%TD*%
%TA.AperFunction,ComponentPad*%
%ADD12O,4.000000X1.800000*%
%TD*%
%TA.AperFunction,ComponentPad*%
%ADD13C,3.000000*%
%TD*%
%TA.AperFunction,ComponentPad*%
%ADD14C,5.000000*%
%TD*%
%TA.AperFunction,ComponentPad*%
%ADD15C,0.800000*%
%TD*%
%TA.AperFunction,ComponentPad*%
%ADD16C,6.400000*%
%TD*%
%TA.AperFunction,ComponentPad*%
%ADD17R,1.700000X1.700000*%
%TD*%
%TA.AperFunction,ComponentPad*%
%ADD18O,1.700000X1.700000*%
%TD*%
%TA.AperFunction,ViaPad*%
%ADD19C,0.800000*%
%TD*%
%TA.AperFunction,Conductor*%
%ADD20C,1.000000*%
%TD*%
%TA.AperFunction,Conductor*%
%ADD21C,4.000000*%
%TD*%
G04 APERTURE END LIST*
D10*
%TO.P,J5,1*%
%TO.N,+12V*%
X165500000Y-105100000D03*
D11*
%TO.P,J5,2*%
%TO.N,GND*%
X171300000Y-105100000D03*
D12*
%TO.P,J5,3*%
%TO.N,N/C*%
X168500000Y-100300000D03*
%TD*%
D13*
%TO.P,TP4,1,1*%
%TO.N,+5V*%
X151440000Y-119025000D03*
%TD*%
D14*
%TO.P,J1,1,Pin_1*%
%TO.N,Net-(J1-Pin_1)*%
X163500000Y-73850000D03*
X163500000Y-89150000D03*
%TD*%
D13*
%TO.P,TP2,1,1*%
%TO.N,GND*%
X163500000Y-119000000D03*
%TD*%
D15*
%TO.P,H2,1,1*%
%TO.N,unconnected-(H2-Pad1)_6*%
X111100000Y-121500000D03*
%TO.N,unconnected-(H2-Pad1)_3*%
X111802944Y-119802944D03*
%TO.N,unconnected-(H2-Pad1)_1*%
X111802944Y-123197056D03*
%TO.N,unconnected-(H2-Pad1)_4*%
X113500000Y-119100000D03*
D16*
%TO.N,unconnected-(H2-Pad1)_2*%
X113500000Y-121500000D03*
D15*
%TO.N,unconnected-(H2-Pad1)_7*%
X113500000Y-123900000D03*
%TO.N,unconnected-(H2-Pad1)_5*%
X115197056Y-119802944D03*
%TO.N,unconnected-(H2-Pad1)_0*%
X115197056Y-123197056D03*
%TO.N,unconnected-(H2-Pad1)*%
X115900000Y-121500000D03*
%TD*%
D13*
%TO.P,TP3,1,1*%
%TO.N,/Vout*%
X127000000Y-119025000D03*
%TD*%
D17*
%TO.P,JP1,1,A*%
%TO.N,Net-(JP1-A)*%
X119500000Y-105775000D03*
D18*
%TO.P,JP1,2,B*%
%TO.N,GND*%
X119500000Y-103235000D03*
%TD*%
D15*
%TO.P,H4,1,1*%
%TO.N,unconnected-(H4-Pad1)_3*%
X174100000Y-73500000D03*
%TO.N,unconnected-(H4-Pad1)_2*%
X174802944Y-71802944D03*
%TO.N,unconnected-(H4-Pad1)*%
X174802944Y-75197056D03*
%TO.N,unconnected-(H4-Pad1)_4*%
X176500000Y-71100000D03*
D16*
%TO.N,unconnected-(H4-Pad1)_0*%
X176500000Y-73500000D03*
D15*
%TO.N,unconnected-(H4-Pad1)_7*%
X176500000Y-75900000D03*
%TO.N,unconnected-(H4-Pad1)_5*%
X178197056Y-71802944D03*
%TO.N,unconnected-(H4-Pad1)_6*%
X178197056Y-75197056D03*
%TO.N,unconnected-(H4-Pad1)_1*%
X178900000Y-73500000D03*
%TD*%
D17*
%TO.P,JP2,1,A*%
%TO.N,Net-(JP2-A)*%
X129500000Y-105775000D03*
D18*
%TO.P,JP2,2,B*%
%TO.N,GND*%
X129500000Y-103235000D03*
%TD*%
D13*
%TO.P,TP1,1,1*%
%TO.N,GND*%
X139000000Y-119025000D03*
%TD*%
D15*
%TO.P,H3,1,1*%
%TO.N,unconnected-(H3-Pad1)_3*%
X174100000Y-121500000D03*
%TO.N,unconnected-(H3-Pad1)_7*%
X174802944Y-119802944D03*
%TO.N,unconnected-(H3-Pad1)*%
X174802944Y-123197056D03*
%TO.N,unconnected-(H3-Pad1)_0*%
X176500000Y-119100000D03*
D16*
%TO.N,unconnected-(H3-Pad1)_4*%
X176500000Y-121500000D03*
D15*
%TO.N,unconnected-(H3-Pad1)_1*%
X176500000Y-123900000D03*
%TO.N,unconnected-(H3-Pad1)_2*%
X178197056Y-119802944D03*
%TO.N,unconnected-(H3-Pad1)_5*%
X178197056Y-123197056D03*
%TO.N,unconnected-(H3-Pad1)_6*%
X178900000Y-121500000D03*
%TD*%
D17*
%TO.P,JP3,1,A*%
%TO.N,Net-(JP3-A)*%
X139500000Y-105775000D03*
D18*
%TO.P,JP3,2,B*%
%TO.N,GND*%
X139500000Y-103235000D03*
%TD*%
D14*
%TO.P,J2,1,Pin_1*%
%TO.N,Net-(J2-Pin_1)*%
X127000000Y-73850000D03*
X127000000Y-89150000D03*
%TD*%
D15*
%TO.P,H1,1,1*%
%TO.N,unconnected-(H1-Pad1)_7*%
X111100000Y-73500000D03*
%TO.N,unconnected-(H1-Pad1)_1*%
X111802944Y-71802944D03*
%TO.N,unconnected-(H1-Pad1)*%
X111802944Y-75197056D03*
%TO.N,unconnected-(H1-Pad1)_2*%
X113500000Y-71100000D03*
D16*
%TO.N,unconnected-(H1-Pad1)_5*%
X113500000Y-73500000D03*
D15*
%TO.N,unconnected-(H1-Pad1)_3*%
X113500000Y-75900000D03*
%TO.N,unconnected-(H1-Pad1)_4*%
X115197056Y-71802944D03*
%TO.N,unconnected-(H1-Pad1)_6*%
X115197056Y-75197056D03*
%TO.N,unconnected-(H1-Pad1)_0*%
X115900000Y-73500000D03*
%TD*%
D19*
%TO.N,GND*%
X141600000Y-98800000D03*
X143200000Y-98800000D03*
X151600000Y-92500000D03*
X141600000Y-97600000D03*
X141600000Y-96400000D03*
%TD*%
D20*
%TO.N,GND*%
X151600000Y-92500000D02*
X151600000Y-95850000D01*
D21*
%TO.N,Net-(J1-Pin_1)*%
X163500000Y-74000000D02*
X163500000Y-89300000D01*
%TO.N,Net-(J2-Pin_1)*%
X127000000Y-74000000D02*
X127000000Y-89300000D01*
%TD*%
%TA.AperFunction,Conductor*%
%TO.N,GND*%
G36*
X179943039Y-95019685D02*
G01*
X179988794Y-95072489D01*
X180000000Y-95124000D01*
X180000000Y-119701587D01*
X179980315Y-119768626D01*
X179927511Y-119814381D01*
X179858353Y-119824325D01*
X179794797Y-119795300D01*
X179765515Y-119757882D01*
X179709122Y-119647206D01*
X179497877Y-119321917D01*
X179253784Y-119020488D01*
X179253781Y-119020484D01*
X178979516Y-118746219D01*
X178856307Y-118646446D01*
X178678082Y-118502122D01*
X178352793Y-118290877D01*
X178007197Y-118114787D01*
X177645094Y-117975788D01*
X177645087Y-117975786D01*
X177270433Y-117875398D01*
X177270429Y-117875397D01*
X177270428Y-117875397D01*
X176887339Y-117814722D01*
X176500001Y-117794422D01*
X176499999Y-117794422D01*
X176112660Y-117814722D01*
X175729572Y-117875397D01*
X175729570Y-117875397D01*
X175354905Y-117975788D01*
X174992802Y-118114787D01*
X174647206Y-118290877D01*
X174321917Y-118502122D01*
X174020488Y-118746215D01*
X174020480Y-118746222D01*
X173746222Y-119020480D01*
X173746215Y-119020488D01*
X173502122Y-119321917D01*
X173290877Y-119647206D01*
X173114787Y-119992802D01*
X172975788Y-120354905D01*
X172875397Y-120729570D01*
X172875397Y-120729572D01*
X172814722Y-121112660D01*
X172794422Y-121499999D01*
X172794422Y-121500000D01*
X172814722Y-121887339D01*
X172875397Y-122270427D01*
X172875397Y-122270429D01*
X172975788Y-122645094D01*
X173114787Y-123007197D01*
X173290877Y-123352793D01*
X173502122Y-123678082D01*
X173502124Y-123678084D01*
X173746219Y-123979516D01*
X174020484Y-124253781D01*
X174020488Y-124253784D01*
X174321917Y-124497877D01*
X174647206Y-124709122D01*
X174647211Y-124709125D01*
X174757883Y-124765515D01*
X174808679Y-124813489D01*
X174825474Y-124881310D01*
X174802937Y-124947445D01*
X174748222Y-124990897D01*
X174701588Y-125000000D01*
X115298412Y-125000000D01*
X115231373Y-124980315D01*
X115185618Y-124927511D01*
X115175674Y-124858353D01*
X115204699Y-124794797D01*
X115242117Y-124765515D01*
X115352789Y-124709125D01*
X115678084Y-124497876D01*
X115979516Y-124253781D01*
X116253781Y-123979516D01*
X116497876Y-123678084D01*
X116709125Y-123352789D01*
X116885214Y-123007194D01*
X117024214Y-122645087D01*
X117124602Y-122270433D01*
X117185278Y-121887338D01*
X117205578Y-121500000D01*
X117185278Y-121112662D01*
X117124602Y-120729567D01*
X117024214Y-120354913D01*
X116885214Y-119992806D01*
X116709125Y-119647211D01*
X116709122Y-119647206D01*
X116497877Y-119321917D01*
X116257439Y-119025001D01*
X124994390Y-119025001D01*
X125014804Y-119310433D01*
X125075628Y-119590037D01*
X125075630Y-119590043D01*
X125075631Y-119590046D01*
X125152187Y-119795300D01*
X125175635Y-119858166D01*
X125312770Y-120109309D01*
X125312775Y-120109317D01*
X125484254Y-120338387D01*
X125484270Y-120338405D01*
X125686594Y-120540729D01*
X125686612Y-120540745D01*
X125915682Y-120712224D01*
X125915690Y-120712229D01*
X126166833Y-120849364D01*
X126166832Y-120849364D01*
X126166836Y-120849365D01*
X126166839Y-120849367D01*
X126434954Y-120949369D01*
X126434960Y-120949370D01*
X126434962Y-120949371D01*
X126714566Y-121010195D01*
X126714568Y-121010195D01*
X126714572Y-121010196D01*
X126968220Y-121028337D01*
X126999999Y-121030610D01*
X127000000Y-121030610D01*
X127000001Y-121030610D01*
X127028595Y-121028564D01*
X127285428Y-121010196D01*
X127565046Y-120949369D01*
X127833161Y-120849367D01*
X128084315Y-120712226D01*
X128313395Y-120540739D01*
X128515739Y-120338395D01*
X128687226Y-120109315D01*
X128824367Y-119858161D01*
X128924369Y-119590046D01*
X128948722Y-119478097D01*
X128985195Y-119310433D01*
X128985195Y-119310432D01*
X128985196Y-119310428D01*
X129005610Y-119025001D01*
X136994891Y-119025001D01*
X137015300Y-119310362D01*
X137076109Y-119589895D01*
X137176091Y-119857958D01*
X137313191Y-120109038D01*
X137313196Y-120109046D01*
X137419882Y-120251561D01*
X137419883Y-120251562D01*
X138322421Y-119349024D01*
X138335359Y-119380258D01*
X138417437Y-119503097D01*
X138521903Y-119607563D01*
X138644742Y-119689641D01*
X138675974Y-119702578D01*
X137773436Y-120605115D01*
X137915960Y-120711807D01*
X137915961Y-120711808D01*
X138167042Y-120848908D01*
X138167041Y-120848908D01*
X138435104Y-120948890D01*
X138714637Y-121009699D01*
X138999999Y-121030109D01*
X139000001Y-121030109D01*
X139285362Y-121009699D01*
X139564895Y-120948890D01*
X139832958Y-120848908D01*
X140084047Y-120711803D01*
X140226561Y-120605116D01*
X140226562Y-120605115D01*
X139324025Y-119702577D01*
X139355258Y-119689641D01*
X139478097Y-119607563D01*
X139582563Y-119503097D01*
X139664641Y-119380258D01*
X139677578Y-119349025D01*
X140580115Y-120251562D01*
X140580116Y-120251561D01*
X140686803Y-120109047D01*
X140823908Y-119857958D01*
X140923890Y-119589895D01*
X140984699Y-119310362D01*
X141005109Y-119025001D01*
X149434390Y-119025001D01*
X149454804Y-119310433D01*
X149515628Y-119590037D01*
X149515630Y-119590043D01*
X149515631Y-119590046D01*
X149592187Y-119795300D01*
X149615635Y-119858166D01*
X149752770Y-120109309D01*
X149752775Y-120109317D01*
X149924254Y-120338387D01*
X149924270Y-120338405D01*
X150126594Y-120540729D01*
X150126612Y-120540745D01*
X150355682Y-120712224D01*
X150355690Y-120712229D01*
X150606833Y-120849364D01*
X150606832Y-120849364D01*
X150606836Y-120849365D01*
X150606839Y-120849367D01*
X150874954Y-120949369D01*
X150874960Y-120949370D01*
X150874962Y-120949371D01*
X151154566Y-121010195D01*
X151154568Y-121010195D01*
X151154572Y-121010196D01*
X151408220Y-121028337D01*
X151439999Y-121030610D01*
X151440000Y-121030610D01*
X151440001Y-121030610D01*
X151468595Y-121028564D01*
X151725428Y-121010196D01*
X152005046Y-120949369D01*
X152273161Y-120849367D01*
X152524315Y-120712226D01*
X152753395Y-120540739D01*
X152955739Y-120338395D01*
X153127226Y-120109315D01*
X153264367Y-119858161D01*
X153364369Y-119590046D01*
X153388722Y-119478097D01*
X153425195Y-119310433D01*
X153425195Y-119310432D01*
X153425196Y-119310428D01*
X153445610Y-119025000D01*
X153443822Y-119000001D01*
X161494891Y-119000001D01*
X161515300Y-119285362D01*
X161576109Y-119564895D01*
X161676091Y-119832958D01*
X161813191Y-120084038D01*
X161813196Y-120084046D01*
X161919882Y-120226561D01*
X161919883Y-120226562D01*
X162822421Y-119324024D01*
X162835359Y-119355258D01*
X162917437Y-119478097D01*
X163021903Y-119582563D01*
X163144742Y-119664641D01*
X163175974Y-119677578D01*
X162273436Y-120580115D01*
X162415960Y-120686807D01*
X162415961Y-120686808D01*
X162667042Y-120823908D01*
X162667041Y-120823908D01*
X162935104Y-120923890D01*
X163214637Y-120984699D01*
X163499999Y-121005109D01*
X163500001Y-121005109D01*
X163785362Y-120984699D01*
X164064895Y-120923890D01*
X164332958Y-120823908D01*
X164584047Y-120686803D01*
X164726561Y-120580116D01*
X164726562Y-120580115D01*
X163824025Y-119677577D01*
X163855258Y-119664641D01*
X163978097Y-119582563D01*
X164082563Y-119478097D01*
X164164641Y-119355258D01*
X164177578Y-119324025D01*
X165080115Y-120226562D01*
X165080116Y-120226561D01*
X165186803Y-120084047D01*
X165323908Y-119832958D01*
X165423890Y-119564895D01*
X165484699Y-119285362D01*
X165505109Y-119000001D01*
X165505109Y-118999998D01*
X165484699Y-118714637D01*
X165423890Y-118435104D01*
X165323908Y-118167041D01*
X165186808Y-117915961D01*
X165186807Y-117915960D01*
X165080115Y-117773436D01*
X164177577Y-118675973D01*
X164164641Y-118644742D01*
X164082563Y-118521903D01*
X163978097Y-118417437D01*
X163855258Y-118335359D01*
X163824024Y-118322421D01*
X164726562Y-117419883D01*
X164726561Y-117419882D01*
X164584046Y-117313196D01*
X164584038Y-117313191D01*
X164332957Y-117176091D01*
X164332958Y-117176091D01*
X164064895Y-117076109D01*
X163785362Y-117015300D01*
X163500001Y-116994891D01*
X163499999Y-116994891D01*
X163214637Y-117015300D01*
X162935104Y-117076109D01*
X162667041Y-117176091D01*
X162415961Y-117313191D01*
X162415953Y-117313196D01*
X162273437Y-117419882D01*
X162273436Y-117419883D01*
X163175975Y-118322421D01*
X163144742Y-118335359D01*
X163021903Y-118417437D01*
X162917437Y-118521903D01*
X162835359Y-118644742D01*
X162822421Y-118675974D01*
X161919883Y-117773436D01*
X161919882Y-117773437D01*
X161813196Y-117915953D01*
X161813191Y-117915961D01*
X161676091Y-118167041D01*
X161576109Y-118435104D01*
X161515300Y-118714637D01*
X161494891Y-118999998D01*
X161494891Y-119000001D01*
X153443822Y-119000001D01*
X153425196Y-118739572D01*
X153410005Y-118669742D01*
X153364371Y-118459962D01*
X153364370Y-118459960D01*
X153364369Y-118459954D01*
X153264367Y-118191839D01*
X153222293Y-118114787D01*
X153127229Y-117940690D01*
X153127224Y-117940682D01*
X152955745Y-117711612D01*
X152955729Y-117711594D01*
X152753405Y-117509270D01*
X152753387Y-117509254D01*
X152524317Y-117337775D01*
X152524309Y-117337770D01*
X152273166Y-117200635D01*
X152273167Y-117200635D01*
X152165915Y-117160632D01*
X152005046Y-117100631D01*
X152005043Y-117100630D01*
X152005037Y-117100628D01*
X151725433Y-117039804D01*
X151440001Y-117019390D01*
X151439999Y-117019390D01*
X151154566Y-117039804D01*
X150874962Y-117100628D01*
X150606833Y-117200635D01*
X150355690Y-117337770D01*
X150355682Y-117337775D01*
X150126612Y-117509254D01*
X150126594Y-117509270D01*
X149924270Y-117711594D01*
X149924254Y-117711612D01*
X149752775Y-117940682D01*
X149752770Y-117940690D01*
X149615635Y-118191833D01*
X149515628Y-118459962D01*
X149454804Y-118739566D01*
X149434390Y-119024998D01*
X149434390Y-119025001D01*
X141005109Y-119025001D01*
X141005109Y-119024998D01*
X140984699Y-118739637D01*
X140923890Y-118460104D01*
X140823908Y-118192041D01*
X140686808Y-117940961D01*
X140686807Y-117940960D01*
X140580115Y-117798436D01*
X139677577Y-118700973D01*
X139664641Y-118669742D01*
X139582563Y-118546903D01*
X139478097Y-118442437D01*
X139355258Y-118360359D01*
X139324024Y-118347421D01*
X140226562Y-117444883D01*
X140226561Y-117444882D01*
X140084046Y-117338196D01*
X140084038Y-117338191D01*
X139832957Y-117201091D01*
X139832958Y-117201091D01*
X139564895Y-117101109D01*
X139285362Y-117040300D01*
X139000001Y-117019891D01*
X138999999Y-117019891D01*
X138714637Y-117040300D01*
X138435104Y-117101109D01*
X138167041Y-117201091D01*
X137915961Y-117338191D01*
X137915953Y-117338196D01*
X137773437Y-117444882D01*
X137773436Y-117444883D01*
X138675975Y-118347421D01*
X138644742Y-118360359D01*
X138521903Y-118442437D01*
X138417437Y-118546903D01*
X138335359Y-118669742D01*
X138322421Y-118700974D01*
X137419883Y-117798436D01*
X137419882Y-117798437D01*
X137313196Y-117940953D01*
X137313191Y-117940961D01*
X137176091Y-118192041D01*
X137076109Y-118460104D01*
X137015300Y-118739637D01*
X136994891Y-119024998D01*
X136994891Y-119025001D01*
X129005610Y-119025001D01*
X129005610Y-119025000D01*
X128985196Y-118739572D01*
X128970005Y-118669742D01*
X128924371Y-118459962D01*
X128924370Y-118459960D01*
X128924369Y-118459954D01*
X128824367Y-118191839D01*
X128782293Y-118114787D01*
X128687229Y-117940690D01*
X128687224Y-117940682D01*
X128515745Y-117711612D01*
X128515729Y-117711594D01*
X128313405Y-117509270D01*
X128313387Y-117509254D01*
X128084317Y-117337775D01*
X128084309Y-117337770D01*
X127833166Y-117200635D01*
X127833167Y-117200635D01*
X127725915Y-117160632D01*
X127565046Y-117100631D01*
X127565043Y-117100630D01*
X127565037Y-117100628D01*
X127285433Y-117039804D01*
X127000001Y-117019390D01*
X126999999Y-117019390D01*
X126714566Y-117039804D01*
X126434962Y-117100628D01*
X126166833Y-117200635D01*
X125915690Y-117337770D01*
X125915682Y-117337775D01*
X125686612Y-117509254D01*
X125686594Y-117509270D01*
X125484270Y-117711594D01*
X125484254Y-117711612D01*
X125312775Y-117940682D01*
X125312770Y-117940690D01*
X125175635Y-118191833D01*
X125075628Y-118459962D01*
X125014804Y-118739566D01*
X124994390Y-119024998D01*
X124994390Y-119025001D01*
X116257439Y-119025001D01*
X116253784Y-119020488D01*
X116253781Y-119020484D01*
X115979516Y-118746219D01*
X115856307Y-118646446D01*
X115678082Y-118502122D01*
X115352793Y-118290877D01*
X115007197Y-118114787D01*
X114645094Y-117975788D01*
X114645087Y-117975786D01*
X114270433Y-117875398D01*
X114270429Y-117875397D01*
X114270428Y-117875397D01*
X113887339Y-117814722D01*
X113500001Y-117794422D01*
X113499999Y-117794422D01*
X113112660Y-117814722D01*
X112729572Y-117875397D01*
X112729570Y-117875397D01*
X112354905Y-117975788D01*
X111992802Y-118114787D01*
X111647206Y-118290877D01*
X111321917Y-118502122D01*
X111020488Y-118746215D01*
X111020480Y-118746222D01*
X110746222Y-119020480D01*
X110746215Y-119020488D01*
X110502122Y-119321917D01*
X110290877Y-119647206D01*
X110234485Y-119757882D01*
X110186510Y-119808678D01*
X110118689Y-119825473D01*
X110052554Y-119802936D01*
X110009103Y-119748220D01*
X110000000Y-119701587D01*
X110000000Y-107347870D01*
X164099500Y-107347870D01*
X164099501Y-107347876D01*
X164105908Y-107407483D01*
X164156202Y-107542328D01*
X164156206Y-107542335D01*
X164242452Y-107657544D01*
X164242455Y-107657547D01*
X164357664Y-107743793D01*
X164357671Y-107743797D01*
X164492517Y-107794091D01*
X164492516Y-107794091D01*
X164499444Y-107794835D01*
X164552127Y-107800500D01*
X166447872Y-107800499D01*
X166507483Y-107794091D01*
X166642331Y-107743796D01*
X166757546Y-107657546D01*
X166843796Y-107542331D01*
X166894091Y-107407483D01*
X166900500Y-107347873D01*
X166900500Y-106310181D01*
X169900000Y-106310181D01*
X169934473Y-106527835D01*
X170002567Y-106737410D01*
X170102613Y-106933760D01*
X170232142Y-107112041D01*
X170387958Y-107267857D01*
X170566239Y-107397386D01*
X170762589Y-107497432D01*
X170972163Y-107565526D01*
X171049999Y-107577854D01*
X171050000Y-107577854D01*
X171050000Y-106515686D01*
X171054394Y-106520080D01*
X171145606Y-106572741D01*
X171247339Y-106600000D01*
X171352661Y-106600000D01*
X171454394Y-106572741D01*
X171545606Y-106520080D01*
X171550000Y-106515686D01*
X171550000Y-107577854D01*
X171627834Y-107565526D01*
X171627837Y-107565526D01*
X171837410Y-107497432D01*
X172033760Y-107397386D01*
X172212041Y-107267857D01*
X172367857Y-107112041D01*
X172497386Y-106933760D01*
X172597432Y-106737410D01*
X172665526Y-106527835D01*
X172700000Y-106310181D01*
X172700000Y-105350000D01*
X171700000Y-105350000D01*
X171700000Y-104850000D01*
X172700000Y-104850000D01*
X172700000Y-103889818D01*
X172665526Y-103672164D01*
X172597432Y-103462589D01*
X172497386Y-103266239D01*
X172367857Y-103087958D01*
X172212041Y-102932142D01*
X172033760Y-102802613D01*
X171837410Y-102702567D01*
X171627836Y-102634473D01*
X171550000Y-102622144D01*
X171550000Y-103684314D01*
X171545606Y-103679920D01*
X171454394Y-103627259D01*
X171352661Y-103600000D01*
X171247339Y-103600000D01*
X171145606Y-103627259D01*
X171054394Y-103679920D01*
X171050000Y-103684314D01*
X171050000Y-102622144D01*
X170972164Y-102634473D01*
X170972161Y-102634473D01*
X170762589Y-102702567D01*
X170566239Y-102802613D01*
X170387958Y-102932142D01*
X170232142Y-103087958D01*
X170102613Y-103266239D01*
X170002567Y-103462589D01*
X169934473Y-103672164D01*
X169900000Y-103889818D01*
X169900000Y-104850000D01*
X170900000Y-104850000D01*
X170900000Y-105350000D01*
X169900000Y-105350000D01*
X169900000Y-106310181D01*
X166900500Y-106310181D01*
X166900499Y-102852128D01*
X166894091Y-102792517D01*
X166843796Y-102657669D01*
X166843795Y-102657668D01*
X166843793Y-102657664D01*
X166757547Y-102542455D01*
X166757544Y-102542452D01*
X166642335Y-102456206D01*
X166642328Y-102456202D01*
X166507482Y-102405908D01*
X166507483Y-102405908D01*
X166447883Y-102399501D01*
X166447881Y-102399500D01*
X166447873Y-102399500D01*
X166447864Y-102399500D01*
X164552129Y-102399500D01*
X164552123Y-102399501D01*
X164492516Y-102405908D01*
X164357671Y-102456202D01*
X164357664Y-102456206D01*
X164242455Y-102542452D01*
X164242452Y-102542455D01*
X164156206Y-102657664D01*
X164156202Y-102657671D01*
X164105908Y-102792517D01*
X164101352Y-102834901D01*
X164099501Y-102852123D01*
X164099500Y-102852135D01*
X164099500Y-107347870D01*
X110000000Y-107347870D01*
X110000000Y-106672870D01*
X118149500Y-106672870D01*
X118149501Y-106672876D01*
X118155908Y-106732483D01*
X118206202Y-106867328D01*
X118206206Y-106867335D01*
X118292452Y-106982544D01*
X118292455Y-106982547D01*
X118407664Y-107068793D01*
X118407671Y-107068797D01*
X118542517Y-107119091D01*
X118542516Y-107119091D01*
X118549444Y-107119835D01*
X118602127Y-107125500D01*
X120397872Y-107125499D01*
X120457483Y-107119091D01*
X120592331Y-107068796D01*
X120707546Y-106982546D01*
X120793796Y-106867331D01*
X120844091Y-106732483D01*
X120850500Y-106672873D01*
X120850500Y-106672870D01*
X128149500Y-106672870D01*
X128149501Y-106672876D01*
X128155908Y-106732483D01*
X128206202Y-106867328D01*
X128206206Y-106867335D01*
X128292452Y-106982544D01*
X128292455Y-106982547D01*
X128407664Y-107068793D01*
X128407671Y-107068797D01*
X128542517Y-107119091D01*
X128542516Y-107119091D01*
X128549444Y-107119835D01*
X128602127Y-107125500D01*
X130397872Y-107125499D01*
X130457483Y-107119091D01*
X130592331Y-107068796D01*
X130707546Y-106982546D01*
X130793796Y-106867331D01*
X130844091Y-106732483D01*
X130850500Y-106672873D01*
X130850500Y-106672870D01*
X138149500Y-106672870D01*
X138149501Y-106672876D01*
X138155908Y-106732483D01*
X138206202Y-106867328D01*
X138206206Y-106867335D01*
X138292452Y-106982544D01*
X138292455Y-106982547D01*
X138407664Y-107068793D01*
X138407671Y-107068797D01*
X138542517Y-107119091D01*
X138542516Y-107119091D01*
X138549444Y-107119835D01*
X138602127Y-107125500D01*
X140397872Y-107125499D01*
X140457483Y-107119091D01*
X140592331Y-107068796D01*
X140707546Y-106982546D01*
X140793796Y-106867331D01*
X140844091Y-106732483D01*
X140850500Y-106672873D01*
X140850499Y-104877128D01*
X140844091Y-104817517D01*
X140793796Y-104682669D01*
X140793795Y-104682668D01*
X140793793Y-104682664D01*
X140707547Y-104567455D01*
X140707544Y-104567452D01*
X140592335Y-104481206D01*
X140592328Y-104481202D01*
X140460401Y-104431997D01*
X140404467Y-104390126D01*
X140380050Y-104324662D01*
X140394902Y-104256389D01*
X140416053Y-104228133D01*
X140538108Y-104106078D01*
X140673600Y-103912578D01*
X140773429Y-103698492D01*
X140773432Y-103698486D01*
X140830636Y-103485000D01*
X139933012Y-103485000D01*
X139965925Y-103427993D01*
X140000000Y-103300826D01*
X140000000Y-103169174D01*
X139965925Y-103042007D01*
X139933012Y-102985000D01*
X140830636Y-102985000D01*
X140830635Y-102984999D01*
X140773432Y-102771513D01*
X140773429Y-102771507D01*
X140673600Y-102557422D01*
X140673599Y-102557420D01*
X140538113Y-102363926D01*
X140538108Y-102363920D01*
X140371082Y-102196894D01*
X140177578Y-102061399D01*
X139963492Y-101961570D01*
X139963486Y-101961567D01*
X139750000Y-101904364D01*
X139750000Y-102801988D01*
X139692993Y-102769075D01*
X139565826Y-102735000D01*
X139434174Y-102735000D01*
X139307007Y-102769075D01*
X139250000Y-102801988D01*
X139250000Y-101904364D01*
X139249999Y-101904364D01*
X139036513Y-101961567D01*
X139036507Y-101961570D01*
X138822422Y-102061399D01*
X138822420Y-102061400D01*
X138628926Y-102196886D01*
X138628920Y-102196891D01*
X138461891Y-102363920D01*
X138461886Y-102363926D01*
X138326400Y-102557420D01*
X138326399Y-102557422D01*
X138226570Y-102771507D01*
X138226567Y-102771513D01*
X138169364Y-102984999D01*
X138169364Y-102985000D01*
X139066988Y-102985000D01*
X139034075Y-103042007D01*
X139000000Y-103169174D01*
X139000000Y-103300826D01*
X139034075Y-103427993D01*
X139066988Y-103485000D01*
X138169364Y-103485000D01*
X138226567Y-103698486D01*
X138226570Y-103698492D01*
X138326399Y-103912578D01*
X138461894Y-104106082D01*
X138583946Y-104228134D01*
X138617431Y-104289457D01*
X138612447Y-104359149D01*
X138570575Y-104415082D01*
X138539598Y-104431997D01*
X138407671Y-104481202D01*
X138407664Y-104481206D01*
X138292455Y-104567452D01*
X138292452Y-104567455D01*
X138206206Y-104682664D01*
X138206202Y-104682671D01*
X138155908Y-104817517D01*
X138149501Y-104877116D01*
X138149501Y-104877123D01*
X138149500Y-104877135D01*
X138149500Y-106672870D01*
X130850500Y-106672870D01*
X130850499Y-104877128D01*
X130844091Y-104817517D01*
X130793796Y-104682669D01*
X130793795Y-104682668D01*
X130793793Y-104682664D01*
X130707547Y-104567455D01*
X130707544Y-104567452D01*
X130592335Y-104481206D01*
X130592328Y-104481202D01*
X130460401Y-104431997D01*
X130404467Y-104390126D01*
X130380050Y-104324662D01*
X130394902Y-104256389D01*
X130416053Y-104228133D01*
X130538108Y-104106078D01*
X130673600Y-103912578D01*
X130773429Y-103698492D01*
X130773432Y-103698486D01*
X130830636Y-103485000D01*
X129933012Y-103485000D01*
X129965925Y-103427993D01*
X130000000Y-103300826D01*
X130000000Y-103169174D01*
X129965925Y-103042007D01*
X129933012Y-102985000D01*
X130830636Y-102985000D01*
X130830635Y-102984999D01*
X130773432Y-102771513D01*
X130773429Y-102771507D01*
X130673600Y-102557422D01*
X130673599Y-102557420D01*
X130538113Y-102363926D01*
X130538108Y-102363920D01*
X130371082Y-102196894D01*
X130177578Y-102061399D01*
X129963492Y-101961570D01*
X129963486Y-101961567D01*
X129750000Y-101904364D01*
X129750000Y-102801988D01*
X129692993Y-102769075D01*
X129565826Y-102735000D01*
X129434174Y-102735000D01*
X129307007Y-102769075D01*
X129250000Y-102801988D01*
X129250000Y-101904364D01*
X129249999Y-101904364D01*
X129036513Y-101961567D01*
X129036507Y-101961570D01*
X128822422Y-102061399D01*
X128822420Y-102061400D01*
X128628926Y-102196886D01*
X128628920Y-102196891D01*
X128461891Y-102363920D01*
X128461886Y-102363926D01*
X128326400Y-102557420D01*
X128326399Y-102557422D01*
X128226570Y-102771507D01*
X128226567Y-102771513D01*
X128169364Y-102984999D01*
X128169364Y-102985000D01*
X129066988Y-102985000D01*
X129034075Y-103042007D01*
X129000000Y-103169174D01*
X129000000Y-103300826D01*
X129034075Y-103427993D01*
X129066988Y-103485000D01*
X128169364Y-103485000D01*
X128226567Y-103698486D01*
X128226570Y-103698492D01*
X128326399Y-103912578D01*
X128461894Y-104106082D01*
X128583946Y-104228134D01*
X128617431Y-104289457D01*
X128612447Y-104359149D01*
X128570575Y-104415082D01*
X128539598Y-104431997D01*
X128407671Y-104481202D01*
X128407664Y-104481206D01*
X128292455Y-104567452D01*
X128292452Y-104567455D01*
X128206206Y-104682664D01*
X128206202Y-104682671D01*
X128155908Y-104817517D01*
X128149501Y-104877116D01*
X128149501Y-104877123D01*
X128149500Y-104877135D01*
X128149500Y-106672870D01*
X120850500Y-106672870D01*
X120850499Y-104877128D01*
X120844091Y-104817517D01*
X120793796Y-104682669D01*
X120793795Y-104682668D01*
X120793793Y-104682664D01*
X120707547Y-104567455D01*
X120707544Y-104567452D01*
X120592335Y-104481206D01*
X120592328Y-104481202D01*
X120460401Y-104431997D01*
X120404467Y-104390126D01*
X120380050Y-104324662D01*
X120394902Y-104256389D01*
X120416053Y-104228133D01*
X120538108Y-104106078D01*
X120673600Y-103912578D01*
X120773429Y-103698492D01*
X120773432Y-103698486D01*
X120830636Y-103485000D01*
X119933012Y-103485000D01*
X119965925Y-103427993D01*
X120000000Y-103300826D01*
X120000000Y-103169174D01*
X119965925Y-103042007D01*
X119933012Y-102985000D01*
X120830636Y-102985000D01*
X120830635Y-102984999D01*
X120773432Y-102771513D01*
X120773429Y-102771507D01*
X120673600Y-102557422D01*
X120673599Y-102557420D01*
X120538113Y-102363926D01*
X120538108Y-102363920D01*
X120371082Y-102196894D01*
X120177578Y-102061399D01*
X119963492Y-101961570D01*
X119963486Y-101961567D01*
X119750000Y-101904364D01*
X119750000Y-102801988D01*
X119692993Y-102769075D01*
X119565826Y-102735000D01*
X119434174Y-102735000D01*
X119307007Y-102769075D01*
X119250000Y-102801988D01*
X119250000Y-101904364D01*
X119249999Y-101904364D01*
X119036513Y-101961567D01*
X119036507Y-101961570D01*
X118822422Y-102061399D01*
X118822420Y-102061400D01*
X118628926Y-102196886D01*
X118628920Y-102196891D01*
X118461891Y-102363920D01*
X118461886Y-102363926D01*
X118326400Y-102557420D01*
X118326399Y-102557422D01*
X118226570Y-102771507D01*
X118226567Y-102771513D01*
X118169364Y-102984999D01*
X118169364Y-102985000D01*
X119066988Y-102985000D01*
X119034075Y-103042007D01*
X119000000Y-103169174D01*
X119000000Y-103300826D01*
X119034075Y-103427993D01*
X119066988Y-103485000D01*
X118169364Y-103485000D01*
X118226567Y-103698486D01*
X118226570Y-103698492D01*
X118326399Y-103912578D01*
X118461894Y-104106082D01*
X118583946Y-104228134D01*
X118617431Y-104289457D01*
X118612447Y-104359149D01*
X118570575Y-104415082D01*
X118539598Y-104431997D01*
X118407671Y-104481202D01*
X118407664Y-104481206D01*
X118292455Y-104567452D01*
X118292452Y-104567455D01*
X118206206Y-104682664D01*
X118206202Y-104682671D01*
X118155908Y-104817517D01*
X118149501Y-104877116D01*
X118149501Y-104877123D01*
X118149500Y-104877135D01*
X118149500Y-106672870D01*
X110000000Y-106672870D01*
X110000000Y-100410221D01*
X165999500Y-100410221D01*
X166033985Y-100627952D01*
X166102103Y-100837603D01*
X166102104Y-100837606D01*
X166202187Y-101034025D01*
X166331752Y-101212358D01*
X166331756Y-101212363D01*
X166487636Y-101368243D01*
X166487641Y-101368247D01*
X166643192Y-101481260D01*
X166665978Y-101497815D01*
X166794375Y-101563237D01*
X166862393Y-101597895D01*
X166862396Y-101597896D01*
X166967221Y-101631955D01*
X167072049Y-101666015D01*
X167289778Y-101700500D01*
X167289779Y-101700500D01*
X169710221Y-101700500D01*
X169710222Y-101700500D01*
X169927951Y-101666015D01*
X170137606Y-101597895D01*
X170334022Y-101497815D01*
X170512365Y-101368242D01*
X170668242Y-101212365D01*
X170797815Y-101034022D01*
X170897895Y-100837606D01*
X170966015Y-100627951D01*
X171000500Y-100410222D01*
X171000500Y-100189778D01*
X170966015Y-99972049D01*
X170897895Y-99762394D01*
X170897895Y-99762393D01*
X170863237Y-99694375D01*
X170797815Y-99565978D01*
X170781260Y-99543192D01*
X170668247Y-99387641D01*
X170668243Y-99387636D01*
X170512363Y-99231756D01*
X170512358Y-99231752D01*
X170334025Y-99102187D01*
X170334024Y-99102186D01*
X170334022Y-99102185D01*
X170271096Y-99070122D01*
X170137606Y-99002104D01*
X170137603Y-99002103D01*
X169927952Y-98933985D01*
X169819086Y-98916742D01*
X169710222Y-98899500D01*
X167289778Y-98899500D01*
X167217201Y-98910995D01*
X167072047Y-98933985D01*
X166862396Y-99002103D01*
X166862393Y-99002104D01*
X166665974Y-99102187D01*
X166487641Y-99231752D01*
X166487636Y-99231756D01*
X166331756Y-99387636D01*
X166331752Y-99387641D01*
X166202187Y-99565974D01*
X166102104Y-99762393D01*
X166102103Y-99762396D01*
X166033985Y-99972047D01*
X165999500Y-100189778D01*
X165999500Y-100410221D01*
X110000000Y-100410221D01*
X110000000Y-95124000D01*
X110019685Y-95056961D01*
X110072489Y-95011206D01*
X110124000Y-95000000D01*
X179876000Y-95000000D01*
X179943039Y-95019685D01*
G37*
%TD.AperFunction*%
%TD*%
M02*
