%TF.GenerationSoftware,KiCad,Pcbnew,8.0.0*%
%TF.CreationDate,2024-03-04T13:39:21+01:00*%
%TF.ProjectId,ACS712-module,41435337-3132-42d6-9d6f-64756c652e6b,rev?*%
%TF.SameCoordinates,Original*%
%TF.FileFunction,Soldermask,Bot*%
%TF.FilePolarity,Negative*%
%FSLAX46Y46*%
G04 Gerber Fmt 4.6, Leading zero omitted, Abs format (unit mm)*
G04 Created by KiCad (PCBNEW 8.0.0) date 2024-03-04 13:39:21*
%MOMM*%
%LPD*%
G01*
G04 APERTURE LIST*
%ADD10R,1.800000X4.400000*%
%ADD11O,1.800000X4.000000*%
%ADD12O,4.000000X1.800000*%
%ADD13C,3.000000*%
%ADD14C,5.000000*%
%ADD15C,0.800000*%
%ADD16C,6.400000*%
%ADD17R,1.700000X1.700000*%
%ADD18O,1.700000X1.700000*%
G04 APERTURE END LIST*
D10*
%TO.C,J5*%
X165500000Y-105100000D03*
D11*
X171300000Y-105100000D03*
D12*
X168500000Y-100300000D03*
%TD*%
D13*
%TO.C,TP4*%
X151440000Y-119025000D03*
%TD*%
D14*
%TO.C,J1*%
X163500000Y-73850000D03*
X163500000Y-89150000D03*
%TD*%
D13*
%TO.C,TP2*%
X163500000Y-119000000D03*
%TD*%
D15*
%TO.C,H2*%
X111100000Y-121500000D03*
X111802944Y-119802944D03*
X111802944Y-123197056D03*
X113500000Y-119100000D03*
D16*
X113500000Y-121500000D03*
D15*
X113500000Y-123900000D03*
X115197056Y-119802944D03*
X115197056Y-123197056D03*
X115900000Y-121500000D03*
%TD*%
D13*
%TO.C,TP3*%
X127000000Y-119025000D03*
%TD*%
D17*
%TO.C,JP1*%
X119500000Y-105775000D03*
D18*
X119500000Y-103235000D03*
%TD*%
D15*
%TO.C,H4*%
X174100000Y-73500000D03*
X174802944Y-71802944D03*
X174802944Y-75197056D03*
X176500000Y-71100000D03*
D16*
X176500000Y-73500000D03*
D15*
X176500000Y-75900000D03*
X178197056Y-71802944D03*
X178197056Y-75197056D03*
X178900000Y-73500000D03*
%TD*%
D17*
%TO.C,JP2*%
X129500000Y-105775000D03*
D18*
X129500000Y-103235000D03*
%TD*%
D13*
%TO.C,TP1*%
X139000000Y-119025000D03*
%TD*%
D15*
%TO.C,H3*%
X174100000Y-121500000D03*
X174802944Y-119802944D03*
X174802944Y-123197056D03*
X176500000Y-119100000D03*
D16*
X176500000Y-121500000D03*
D15*
X176500000Y-123900000D03*
X178197056Y-119802944D03*
X178197056Y-123197056D03*
X178900000Y-121500000D03*
%TD*%
D17*
%TO.C,JP3*%
X139500000Y-105775000D03*
D18*
X139500000Y-103235000D03*
%TD*%
D14*
%TO.C,J2*%
X127000000Y-73850000D03*
X127000000Y-89150000D03*
%TD*%
D15*
%TO.C,H1*%
X111100000Y-73500000D03*
X111802944Y-71802944D03*
X111802944Y-75197056D03*
X113500000Y-71100000D03*
D16*
X113500000Y-73500000D03*
D15*
X113500000Y-75900000D03*
X115197056Y-71802944D03*
X115197056Y-75197056D03*
X115900000Y-73500000D03*
%TD*%
M02*
